<?xml version="1.0" encoding="UTF-8" standalone="no"?>
<svg width="41px" height="19px" viewBox="0 0 41 19" version="1.1" xmlns="http://www.w3.org/2000/svg" xmlns:xlink="http://www.w3.org/1999/xlink">
    <!-- Generator: Sketch 39.1 (31720) - http://www.bohemiancoding.com/sketch -->
    <title>Group</title>
    <desc>Created with Sketch.</desc>
    <defs></defs>
    <g id="Site-Index" stroke="none" stroke-width="1" fill="none" fill-rule="evenodd">
        <g id="1400-Wide-Kulors-Copy" transform="translate(-578.000000, -2903.000000)">
            <g id="Group-4" transform="translate(0.000000, 2685.000000)">
                <g id="Group-5" transform="translate(323.000000, 62.000000)">
                    <g id="Group-3" transform="translate(225.000000, 141.000000)">
                        <g id="Group-2" transform="translate(30.000000, 14.000000)">
                            <g id="Group" transform="translate(0.000000, 1.000000)">
                                <g id="Invitation-Sent" transform="translate(-0.000000, 0.000000)">
                                    <path d="M39.8086834,-5.68434189e-13 L13.3744588,-5.68434189e-13 C13.0722906,-5.68434189e-13 12.8237458,0.247078432 12.8237458,0.557865128 L12.8237458,17.8516841 C12.8237458,18.1624708 13.0722906,18.4095492 13.3744588,18.4095492 L39.8086834,18.4095492 C40.1102956,18.4095492 40.3593964,18.1624708 40.3593964,17.8516841 L40.3593964,0.557865128 C40.3593964,0.247078432 40.1102956,-5.68434189e-13 39.8086834,-5.68434189e-13 L39.8086834,-5.68434189e-13 Z" id="Fill-150" fill="#E7473F"></path>
                                    <rect id="Rectangle-206" fill="#FFFFFF" x="31.5479882" y="3.34719077" width="6.05784313" height="7.25224667" rx="1"></rect>
                                    <rect id="Rectangle-216" fill="#FFFFFF" x="16.6787369" y="7.8101118" width="3.85499108" height="1.11573026"></rect>
                                    <rect id="Rectangle-217" fill="#FFFFFF" x="16.6787369" y="10.5994374" width="9.36212119" height="1.11573026"></rect>
                                    <rect id="Rectangle-218" fill="#FFFFFF" x="16.6787369" y="13.3887631" width="9.36212119" height="1.11573026"></rect>
                                    <g id="Fill-153-+-Fill-152-+-Fill-151" transform="translate(5.070181, 4.310112) scale(-1, -1) translate(-5.070181, -4.310112) translate(0.070181, 0.810112)" fill="#E7473F">
                                        <path d="M8.81140818,5.57865128 L0.550713011,5.57865128 C0.252178349,5.57865128 1.33226763e-14,5.82857486 1.33226763e-14,6.13651641 C1.33226763e-14,6.44501583 0.252178349,6.69438154 0.550713011,6.69438154 L8.81140818,6.69438154 C9.10994284,6.69438154 9.36212119,6.44501583 9.36212119,6.13651641 C9.36212119,5.82857486 9.10994284,5.57865128 8.81140818,5.57865128" id="Fill-153"></path>
                                        <path d="M0.388738596,3.9050559 L6.21981754,3.9050559 C6.43055859,3.9050559 6.60855614,3.65513232 6.60855614,3.34719077 C6.60855614,3.03924922 6.43055859,2.78932564 6.21981754,2.78932564 L0.388738596,2.78932564 C0.177997544,2.78932564 3.92352817e-12,3.03924922 3.92352817e-12,3.34719077 C3.92352817e-12,3.65513232 0.177997544,3.9050559 0.388738596,3.9050559" id="Fill-152"></path>
                                        <path d="M0.550713011,1.11573026 L3.30427807,1.11573026 C3.6055078,1.11573026 3.85499108,0.866364544 3.85499108,0.557865128 C3.85499108,0.249923578 3.6055078,5.68434189e-13 3.30427807,5.68434189e-13 L0.550713011,5.68434189e-13 C0.250041408,5.68434189e-13 0,0.249923578 0,0.557865128 C0,0.866364544 0.250041408,1.11573026 0.550713011,1.11573026" id="Fill-151"></path>
                                    </g>
                                </g>
                            </g>
                        </g>
                    </g>
                </g>
            </g>
        </g>
    </g>
</svg>