<?xml version="1.0" encoding="UTF-8" standalone="no"?>
<svg width="37px" height="37px" viewBox="0 0 37 37" version="1.1" xmlns="http://www.w3.org/2000/svg" xmlns:xlink="http://www.w3.org/1999/xlink">
    <!-- Generator: Sketch 39.1 (31720) - http://www.bohemiancoding.com/sketch -->
    <title>i-behanced</title>
    <desc>Created with Sketch.</desc>
    <defs>
        <path d="M0,2.99652399 C0,1.34158949 1.35230537,0 3.0013337,0 L31.0078125,0 L34.0039062,0 C35.6586031,0 37,1.33870834 37,2.99652399 L37,34.003476 C37,35.6584105 35.6612917,37 34.003476,37 L2.99652399,37 C1.34158949,37 0,35.6612917 0,34.003476 L0,2.99652399 Z" id="path-1"></path>
        <mask id="mask-2" maskContentUnits="userSpaceOnUse" maskUnits="objectBoundingBox" x="0" y="0" width="37" height="37" fill="white">
            <use xlink:href="#path-1"></use>
        </mask>
        <mask id="mask-4" maskContentUnits="userSpaceOnUse" maskUnits="objectBoundingBox" x="0" y="0" width="37" height="37" fill="white">
            <use xlink:href="#path-1"></use>
        </mask>
    </defs>
    <g id="Site-Index" stroke="none" stroke-width="1" fill="none" fill-rule="evenodd">
        <g id="1400-Wide-Kulors-Copy" transform="translate(-794.000000, -2963.000000)">
            <g id="Group-4" transform="translate(-3.000000, 2681.000000)">
                <g id="Group-7" transform="translate(573.000000, 282.000000)">
                    <g id="i-behanced" transform="translate(224.000000, 0.000000)">
                        <mask id="mask-3" fill="white">
                            <use xlink:href="#path-1"></use>
                        </mask>
                        <g id="Mask" stroke="#000000" mask="url(#mask-2)" stroke-width="4">
                            <use mask="url(#mask-4)" xlink:href="#path-1"></use>
                        </g>
                        <g id="34364" mask="url(#mask-3)">
                            <g transform="translate(7.000000, 12.000000)" id="Capa_1">
                                <g>
                                    <path d="M20.7706496,1.9811755 L15.0076969,1.9811755 L15.0076969,0.580809326 L20.7711308,0.580809326 L20.7711308,1.9811755 L20.7706496,1.9811755 L20.7706496,1.9811755 Z M11.171165,7.72361843 C11.5430166,8.28706049 11.7288355,8.9711841 11.7288355,9.7743676 C11.7288355,10.6049621 11.5193281,11.3500803 11.0930943,12.0082577 C10.8219324,12.4437993 10.4852659,12.8117027 10.0807422,13.1078878 C9.6251517,13.4504204 9.08576889,13.6852969 8.46569523,13.810791 C7.84364306,13.9364944 7.1703637,14 6.44510852,14 L0,14 L0,0 L6.91139365,0 C8.65349263,0.027724844 9.88856002,0.521488622 10.6178791,1.49117812 C11.0555027,2.08590218 11.272336,2.7995292 11.272336,3.62902515 C11.272336,4.48493816 11.0528825,5.16979412 10.6109811,5.6901319 C10.3651654,5.98187049 10.0020299,6.24724433 9.52130701,6.48677652 C10.2494497,6.74754699 10.8019334,7.15818854 11.171165,7.72361843 L11.171165,7.72361843 Z M3.30046452,5.51949333 L6.32875113,5.51949333 C6.95107066,5.51949333 7.45414526,5.40378134 7.84161109,5.17246198 C8.22880955,4.9415088 8.42200774,4.53097186 8.42200774,3.94153122 C8.42200774,3.29031125 8.16619259,2.85806524 7.65333243,2.65002429 C7.21250048,2.50548892 6.64846659,2.43105033 5.96406483,2.43105033 L3.30046452,2.43105033 L3.30046452,5.51949333 L3.30046452,5.51949333 Z M8.71359636,9.57438254 C8.71359636,8.84715465 8.4097624,8.34439338 7.80332437,8.07462542 C7.4641982,7.9213018 6.98572121,7.84293988 6.37222474,7.8373426 L3.30046452,7.8373426 L3.30046452,11.5682696 L6.32468718,11.5682696 C6.94599072,11.5682696 7.426874,11.4887046 7.77391419,11.3227217 C8.39976294,11.0175391 8.71359636,10.4367298 8.71359636,9.57438254 L8.71359636,9.57438254 Z M22.908877,7.29681276 C22.978499,7.75484811 23.0099946,8.41940739 22.9972145,9.28803198 L15.5335511,9.28803198 C15.5747253,10.2958562 15.9303747,11.0006427 16.6048839,11.4039607 C17.0116535,11.6568845 17.5048356,11.7803908 18.0823447,11.7803908 C18.691296,11.7803908 19.187633,11.6297874 19.569698,11.3202107 C19.7778687,11.156111 19.9614952,10.9244778 20.1202567,10.6322161 L22.8559387,10.6322161 C22.7842848,11.2274633 22.4548907,11.8311848 21.8629439,12.4446886 C20.9458273,13.4198184 19.6595862,13.9087696 18.0076963,13.9087696 C16.6430637,13.9087696 15.440401,13.4964017 14.3964998,12.6746478 C13.3560744,11.8500168 12.8335356,10.5126331 12.8335356,8.65742256 C12.8335356,6.91771476 13.3026548,5.58613758 14.2440481,4.65929081 C15.1889172,3.73071778 16.4083169,3.26854986 17.9113913,3.26854986 C18.8023061,3.26854986 19.605418,3.4243321 20.3219036,3.73751822 C21.0361433,4.0510182 21.6264325,4.5444158 22.0913273,5.22252363 C22.5120534,5.81970631 22.7826271,6.51021186 22.908877,7.29681276 L22.908877,7.29681276 Z M20.2161339,7.55805403 C20.1659762,6.86116654 19.928128,6.33371446 19.4998622,5.97323917 C19.0751256,5.61176998 18.5445124,5.43030303 17.9113913,5.43030303 C17.2223374,5.43030303 16.6902804,5.62427232 16.3122258,6.00551508 C15.9316046,6.38597317 15.6947724,6.9032246 15.5977187,7.55810634 L20.2161339,7.55810634 L20.2161339,7.55805403 L20.2161339,7.55805403 Z" id="Behance" fill="#000000"></path>
                                </g>
                            </g>
                        </g>
                    </g>
                </g>
            </g>
        </g>
    </g>
</svg>