<?xml version="1.0" encoding="UTF-8" standalone="no"?>
<svg width="37px" height="37px" viewBox="0 0 37 37" version="1.1" xmlns="http://www.w3.org/2000/svg" xmlns:xlink="http://www.w3.org/1999/xlink">
    <!-- Generator: Sketch 39.1 (31720) - http://www.bohemiancoding.com/sketch -->
    <title>i-github</title>
    <desc>Created with Sketch.</desc>
    <defs></defs>
    <g id="Site-Index" stroke="none" stroke-width="1" fill="none" fill-rule="evenodd">
        <g id="1400-Wide-Kulors-Copy" transform="translate(-846.000000, -2963.000000)" fill="#000000">
            <g id="Group-4" transform="translate(0.000000, 2685.000000)">
                <g id="Group-7" transform="translate(570.000000, 278.000000)">
                    <g id="i-github" transform="translate(276.000000, 0.000000)">
                        <g id="Capa_1">
                            <path d="M18.5,0 C8.28272461,0 0,8.28272461 0,18.5 C0,28.7172754 8.28272461,37 18.5,37 C28.7172754,37 37,28.7172754 37,18.5 C37,8.28272461 28.7172754,0 18.5,0 L18.5,0 Z M30.5559612,30.5872179 C28.9889646,32.1541352 27.1653485,33.3839421 25.1353901,34.2425388 C24.619772,34.4606178 24.0961446,34.6520515 23.5651421,34.8171571 L23.5651421,31.7745985 C23.5651421,30.1753262 23.0166933,28.9990478 21.919637,28.245684 C22.607022,28.1796259 23.2380236,28.0870811 23.8129591,27.968129 C24.3878946,27.8491768 24.9959781,27.6773306 25.6368924,27.4526695 C26.2779653,27.2280085 26.8529008,26.9603662 27.3616989,26.6497424 C27.8706556,26.3391186 28.3596283,25.9360294 28.8287757,25.4403953 C29.2980817,24.9447613 29.691179,24.3830691 30.0083847,23.7552395 C30.3255905,23.12741 30.5768175,22.3740462 30.7617485,21.4951483 C30.9468381,20.6162503 31.0393036,19.6480589 31.0393036,18.5907327 C31.0393036,16.5421384 30.3719026,14.7975066 29.036942,13.3568372 C29.6450255,11.7708082 29.5788881,10.0460017 28.8386884,8.18241767 L28.3430543,8.12294159 C27.9995205,8.08329086 27.3815243,8.22865042 26.489383,8.55909955 C25.5972417,8.88954869 24.5960609,9.43141548 23.4858406,10.1847792 C21.9131343,9.74862127 20.2807933,9.53054229 18.5890555,9.53054229 C16.8840744,9.53054229 15.2583947,9.74862127 13.7120165,10.1847792 C13.0115468,9.70897055 12.3473972,9.31579397 11.7195676,9.0051702 C11.091738,8.69454642 10.589522,8.48312876 10.2128401,8.37075861 C9.8361582,8.25838846 9.4858837,8.18899969 9.16209589,8.16259231 C8.83830808,8.13618493 8.63014178,8.12952361 8.53759699,8.14276695 C8.4450522,8.15601029 8.37899409,8.16917433 8.33934337,8.18241767 C7.59922295,10.059245 7.53308554,11.7840515 8.14108975,13.3568372 C6.80620847,14.7975066 6.13872818,16.5421384 6.13872818,18.5907327 C6.13872818,19.6480589 6.23127297,20.6162503 6.41628325,21.4951483 C6.60129353,22.3740462 6.85244121,23.12741 7.16964701,23.7552395 C7.4868528,24.3830691 7.88002938,24.9447613 8.34925605,25.4403953 C8.81848271,25.9360294 9.30745544,26.3391186 9.81633284,26.6497424 C10.3252102,26.9603662 10.9001457,27.2280085 11.5411393,27.4526695 C12.1821329,27.6773306 12.7901371,27.8491768 13.3650726,27.968129 C13.9400081,28.0870811 14.5710891,28.1796259 15.2583947,28.245684 C14.1745818,28.9858044 13.632715,30.1621621 13.632715,31.7745985 L13.632715,34.8764746 C13.0340684,34.6982843 12.4439863,34.4877389 11.8642927,34.2425388 C9.83441357,33.3839421 8.01071816,32.1541352 6.44380085,30.5872179 C4.87696284,29.0203799 3.64707668,27.1966052 2.78855921,25.1666467 C1.90054159,23.066903 1.45018867,20.8344086 1.45018867,18.5312566 C1.45018867,16.2281047 1.90054159,13.9956103 2.78871781,11.895708 C3.64731459,9.86582881 4.87712144,8.04213341 6.44395946,6.4752161 C8.01079747,4.90829879 9.83457217,3.67849193 11.8644513,2.81997445 C13.9643537,1.93179824 16.196848,1.48144531 18.5,1.48144531 C20.803152,1.48144531 23.0356463,1.93179824 25.135628,2.81997445 C27.1655864,3.67857123 28.9892025,4.90837809 30.5561991,6.4752161 C32.1230372,8.04205411 33.352844,9.86582881 34.2113615,11.895708 C35.0993791,13.9956103 35.5498113,16.2281047 35.5498113,18.5312566 C35.5498113,20.8344086 35.0993791,23.066903 34.2112822,25.1668053 C33.3527647,27.1966052 32.1227993,29.0204592 30.5559612,30.5872179 L30.5559612,30.5872179 Z" id="Shape"></path>
                        </g>
                    </g>
                </g>
            </g>
        </g>
    </g>
</svg>